<svg height="817" width="309" xmlns="http://www.w3.org/2000/svg"><g fill="none" fill-rule="evenodd" opacity=".25" transform="matrix(.79863551 .60181502 -.60181502 .79863551 264.923029 -178.651473)"><path d="m631.717 768.384-1.563.098c.532.048.983-.025 1.563-.098m-6.81.275c1.37.105 3.082-.023 5.247-.177l-.211-.018c-1.91-.054-.129-.415 2.949-.461 3.208-.21 2.943.092 5.713-.248l-3.827-.049c-5.04.275-7.896.778-9.87.953" fill="#1dc287"/><path d="m631.717 768.384 1.802-.098a12.194 12.194 0 0 0 -1.802.098m-18.14.429c.39-.197 2.417-.197 4.459-.185 2.041-.004 4.098.005 4.54-.17-4.486.104-8.06-.206-7.088-.43-1.65.053-3.3.078-4.95.115-1.641.135.447.473 3.04.67m-9.683-1.171c-.324.025-.714.045-1.144.041.539 0 1.003-.013 1.144-.041" fill="#1dc287"/><path d="m578.901 766.818c3.849.233 7.696.417 11.546.52-1.084.06-.662.218-3.297.087 5.105.4 5.777.175 9.997.414.628.214-1.238.152-2.957.058-1.718-.094-3.29-.185-2.083.054 2.974.172 7.426.341 9.835.087 1.571.145 3.144.252 4.718.38l-1.602-.457c-1.9-.157-3.865.22-5.035-.11-.592-.2 1.326-.17 2.674-.168-3.053-.007-8.31-.61-14.473-.988-6.512-.445-5.038.314-9.323.123" fill="#283241"/><path d="m578.481434 766.312078-.717257-.241654.502025.275783z" fill="#283241"/><path d="m565.911 765.307c2.004.195 4.004.398 6.01.547.638.113.987.244 1.4.372-.234-.125 1.401-.092 1.154-.202-2.694-.703-7.309-.774-10.505-1.232-8.398-1.55.411-.122-2.814-1.022 2.352.413 2.427.493 5.701 1.018-5.096-1.143-11.597-1.935-14.883-2.545.941.228 1.146.412 2.971.73-1.145-.169-2.28-.383-3.424-.572.866.258 1.702.494 2.592.73.893.22 1.841.435 2.927.667 2.17.458 4.902.94 8.871 1.51m10.68 1.348c-2.232-.203-3.061-.348-3.238-.42.566.174 1.308.343 3.238.42m-26.4-4.773c.363.1.977.218 1.783.36-.407-.101-.934-.213-1.783-.36m3.261 1.14c-1.374-.308-2.754-.585-4.121-.916.523.185 1.05.36 1.579.528.575.099 2.62.497 2.542.387m-120.994-98.239c.263.32 1.506 1.258 4.268 3.032-.222-.023-1.214-.626-2.363-1.347l-1.769-1.112a41.258 41.258 0 0 0 -1.594-.87c3.64 2.316-.188.16.645.89 4.026 2.616 6.001 3.524 10.098 6.666-.243-.106-.229.018.268.47 1.292.857 2.685 2.024 4.223 3.222l2.356 1.872 2.315 2.066 2.302 2.072c.758.684 1.43 1.43 2.113 2.113l1.926 1.998c.605.636 1.18 1.227 1.646 1.825l2.702 3.14 1.293 1.48 1.206 1.532 2.504 3.15c.217.274.443.547.66.833l.632.895 1.334 1.887c.73 1.096 1.496 2.175 2.208 3.29l2.043 3.42 1.026 1.716.512.861.464.889 1.865 3.564 1.873 3.577.94 1.789 1.044 1.735c.357.574.678 1.17 1.066 1.728l1.147 1.68c.737 1.142 1.614 2.187 2.433 3.278 3.375 4.291 7.34 8.165 11.684 11.626 4.343 3.467 9.063 6.528 14.022 9.24.991.412 2.022.74 3.03 1.107.86.709 4.847 2.278 4.152 2.257-1.086-.567-2.193-.996-3.516-1.65 1.037.625 2.311 1.223 3.68 1.883 1.384.627 2.895 1.253 4.442 1.868 1.561.577 3.136 1.203 4.692 1.722.773.274 1.534.544 2.272.804l2.146.734c-.61-.274-1.399-.9.277-.416-.281.133 1.336.698 3.239 1.256 1.892.595 4.06 1.196 4.816 1.668 2.78.825 2.868.702 2.972.634.11-.087.244-.143 3.169.594.672-.085-5.59-1.494-6.574-2.015 1.86.322 5.258 1.447 5.05 1.12-4.677-1.2-11.348-2.944-18.463-5.418-3.544-1.269-7.203-2.697-10.762-4.315-3.546-1.642-7-3.443-10.165-5.352l1.466.588c-3.284-1.85-7.424-4.58-11.049-7.648-.889-.786-1.792-1.537-2.619-2.324-.814-.798-1.608-1.57-2.346-2.32-.702-.784-1.366-1.53-1.98-2.219-.616-.686-1.102-1.385-1.56-1.979.183.306-.168-.071-.795-.791-.632-.717-1.44-1.852-2.306-2.955-.826-1.132-1.604-2.309-2.208-3.098-.567-.812-.913-1.271-.886-.957a50.817 50.817 0 0 0 -1.093-2.022c-.35-.63-.703-1.374-1.317-2.58l-.495-.58c-1.8-3.45-1.28-3.019-3.37-6.979 1.145 2.708-.377-.172-1.262-1.158l-1.882-3.494c-.33-.59-.631-1.205-.99-1.784l-1.08-1.73-2.109-3.38c-.33-.555-.696-1.067-1.052-1.566l-1.028-1.457c.161.328.354.715 1.231 2.01-1.839-2.51-1.686-1.95-2.25-2.554-1.834-2.35-1.42-2.298-1.217-2.28-1.724-2.148-3.161-3.544-4.423-4.851-.62-.664-1.277-1.233-1.918-1.857a38.238 38.238 0 0 1 -1.976-2.051l.853 1.207c-1.006-.994-1.93-1.988-2.883-2.926l-2.902-2.74-1.471-1.39c-.49-.476-1.042-.895-1.576-1.355a206.227 206.227 0 0 0 -3.44-2.81c-1.065-1.08-.03-.322 1.535.899 1.56 1.227 3.683 2.878 4.652 3.742-.861-.949-2.962-2.644-3.547-3.268l-1.87-1.359-1.066-.778-1.157-.761-4.578-3.018c1.382.778.496-.034-1.047-1.075-1.531-1.055-3.628-2.465-4.538-3.04m14.256 10.03c.62.446 1.155.827 1.472 1.042-.485-.372-.937-.715-1.636-1.307-.093-.023-.013.085.164.265m-14.256-10.03c-.011-.021-.09-.08-.093-.097-.545-.297-.371-.184.093.097" fill="#283241"/><path d="m459.41 688.304c-.151-.183-.353-.425-.517-.625-.234-.27-.425-.506-.668-.766.407.453.79.928 1.185 1.39m3.879 2.818c.382.473.773 1.086 1.239 1.747l1.518 2.17c-.117-.24-.228-.46-.595-1.003-.184-.27-.43-.623-.776-1.098l-.594-.81a13.39 13.39 0 0 0 -.792-1.006m19.997 32.311c.682.928.37.342.886.967-1.323-1.963-1.839-2.584-.886-.967m-41.968-52.891-1.945-1.382-.975-.687-1.006-.641-1.497-.912c.917.583 1.846 1.149 2.753 1.747zm-90.184-29.5a73.74 73.74 0 0 0 3.42.444l1.9.197c.647.079 1.307.16 1.976.24l4.055.471c1.35.166 2.677.387 3.946.583 2.332.309 3.578.437 4.268.51.692.06.836.012.965-.036.258-.092.456-.193 4.864.604-.538.084-1.08.192-1.618.288 1.101.18 2.248.432 3.437.688s2.417.52 3.67.788c1.256.26 2.514.614 3.79.919 1.272.322 2.558.618 3.823.954l3.736 1.037c1.225.338 2.432.64 3.573 1.006 1.147.347 2.254.673 3.304.971 1.05.3 2.049.559 2.954.847.614.306 2.056.938-.148.203 2.798 1.033 3.597 1.11 4.623 1.303 1.035.166 2.257.563 5.908 2.192-7.023-2.568 2.115 1.262.083.796l-1.091-.414c.585.238 1.192.487 1.815.742l1.874.845 3.794 1.711a177.289 177.289 0 0 1 6.137 3.127c.098-.032-.468-.438-.565-.578-.048-.07.022-.073.35.072.165.072.396.181.707.337.308.165.69.39 1.174.672-1.544-.947-.836-.725-.622-.773-4.184-2.055-6.349-3.352-8.994-4.336-2.26-1.283 1.606.69-.655-.594-1.158-.463-2.29-.983-3.463-1.4-2.502-1.104 2.688.92-1.236-.778-.248-.042-1.182-.37-2.438-.855l-2.084-.813c-.755-.273-1.548-.565-2.33-.864l.928.275c-2.423-.83-5.777-2.17-4.725-1.44l-2.757-1.249.425.372c-1.654-.562-3.034-1.09-4.329-1.547l-3.765-1.273-1.969-.642c-.687-.215-1.422-.397-2.21-.606-.789-.204-1.636-.416-2.563-.636-.927-.213-1.928-.472-3.044-.66 2.11.523.143.22-.999.018 1.83.452 2.96.708 4.077.923 1.116.213 2.215.4 3.955.822.456.34-5.487-.881-1.322.3a86.975 86.975 0 0 0 -3.301-.944l-1.542-.408-1.45-.33c-1.855-.427-3.37-.817-4.307-1.298-2.803-.577-4.764-.837-6.725-1.156-1.965-.287-3.95-.52-6.816-1.022l.182-.054c-.553.085-1.723-.08-3.295-.311-1.573-.21-3.544-.54-5.711-.52 1.017.113 2.033.234 3.044.392-.08.066-.49.056-1.136.002l-2.574-.193c.237-.036.237-.036-.429-.167-.322.103-2.115.014-3.93-.09-1.817-.06-3.656-.144-4.068-.13 1.372.11 2.901.152 4.49.21 1.586.086 3.232.162 4.84.274-1.645.006-1.17.27-3.876-.019m57.614 11.915-1.784-.533c.718.246 1.374.449 1.784.533m-83.48-13.11c-3.658.014.98-.267-2.443-.275-1.853.166-.783.216.294.276 1.078.056 2.163.166.352.343-1.12-.034-2.584.055-3.954.16l-1.93.157a45.06 45.06 0 0 1 -1.457.138c1.629-.26.657-.547-.002-.575-1.397.205-4.564.184-6.969.422 5.903-.31-4.934.573.398.334-.185.12-1.66.341-3.369.539-1.709.192-3.644.444-4.77.482.144-.166 1.961-.342 3.453-.518 1.174-.417-3.743.273-4.613.113-2.775.524-8.599 1.481-13.1 2.175-2.257.303-4.183.597-5.227.783-1.044.176-1.202.305.087.36 1.935-.072 3.555-.416 5.628-.665-5.834.509-.079-.318.396-.5 2.474-.237 6.693-1.019 5.752-.662l-3.886.772 10.171-1.323 5.527-.61c1.88-.17 3.79-.34 5.715-.513a272.751 272.751 0 0 1 22.954-.822c-2.099-.023-4.198-.064-6.296-.012.366-.09 1.293-.154 2.419-.201l3.605-.065-3.08-.444c1.818.049 3.56.003 3.402.15 2.224-.156 1.212-.272-.12-.427 1.18-.003 2.112-.011 2.906.015l2.063.077c1.239.042 2.342.053 4.168-.018-7.836-.607-6.636-.01-15.616-.268l-2.458.603z" fill="#283241"/><path d="m342.427498 639.797541-1.890298.143121 2.902053.003303z" fill="#283241"/><path d="m339.412 640.608c-.094-.095 1.061-.096.967-.19-3.645-.19-3.215-.048-.967.19m-43.953 1.453-4.653.714 3.045-.337c-.088-.082 1.031-.277 1.608-.377m-32.849 3.378c1.643.026 3.05.06 4.35.046l3.721-.1c1.223-.008 2.468-.113 3.874-.155l2.242-.076 2.575-.137c3.601-.56-1.722-.376-.187-.746-1.83.12-2.623.278-3.436.425-.812.157-1.643.333-3.545.466-1.41-.199-5.557.195-9.194-.01.44.11.438.219-.4.287" fill="#283241"/><path d="m240.498 641.358c-1.452-.337-2.874-.798-4.241-1.178-1.373-.362-2.617-.868-3.706-1.319.183-.01.694.126 1.367.35.337.11.714.243 1.11.39l1.254.409c-.251-.166-.573-.307-.96-.444-.389-.138-.83-.308-1.341-.48-.509-.176-1.079-.37-1.704-.605-.313-.117-.64-.244-.979-.383-.339-.142-.678-.325-1.035-.507.24.145 1.28.663.428.368-1.815-.829-3.004-1.3-3.867-1.713-.862-.415-1.442-.675-2.09-.972-.647-.297-1.369-.614-2.45-1.26l-1.978-1.154a16.107 16.107 0 0 1 -1.266-.81l-1.481-1.007c-1.321-.721-2.502-1.626-2.428-1.295a170.163 170.163 0 0 1 -2.363-1.953c-.493-.444-.775-.735-1.095-1.037a59.868 59.868 0 0 0 -1.264-1.177c-.295-.277-.67-.588-1.105-1.013l-1.578-1.56c.108.273 1.625 2.078 1.411 2.247-3.624-3.506-5.374-5.377-6.848-6.894-1.42-1.564-2.604-2.742-4.486-5.35.474.548 1.05 1.177 2.139 2.528-.24-.882-3.506-4.084-5.524-7.038l.478.086-.82-1.056-.883-1.23-1.958-2.754c-.647-.98-1.284-1.996-1.896-2.988l-.882-1.469c-.269-.489-.518-.97-.751-1.432l.612.725-1.677-2.732-.844-1.405-.803-1.447-1.603-2.92c-.526-.979-1.009-1.978-1.509-2.96-.49-.984-.996-1.95-1.455-2.92-.456-.971-.904-1.927-1.34-2.86-.895-1.855-1.674-3.65-2.412-5.28-.442-1.21-.909-2.41-1.314-3.634-1.965-4.53-1.075-2.247-.087.359 1.01 2.595 2.195 5.483.524 2.264.032-.31-.09-.752-.322-1.324-.22-.578-.545-1.287-.935-2.125-.78-1.673-1.82-3.858-2.742-6.524-.759-2.56 2.225 5.253 1.394 2.411-.75-1.04-1.194-2.76-2.384-5.507.522.488-2.359-5.822-1.342-4.23-1.528-3.18-3.09-6.343-4.733-9.46-.532-1.63-1.917-4.37-2.949-6.378 2.504 5.125-1.07-1.214 1.596 4.59 2.04 4.175 4.585 9.84 7.043 15.858 2.412 6.031 4.908 12.358 7.227 17.695.453.495 1.236 2.188 2.043 3.952.808 1.764 1.722 3.56 2.275 4.32.005.3.296 1.134.306 1.446 3.614 6.581-.65-1.65.357-.112 1.585 2.874 2.636 5.317 2.36 5.125 2.67 4.669.393.462 1.956 2.724.46 1.085.905 2.18 1.418 3.241.566.886 1.144 1.787 1.732 2.705.577.926 1.246 1.815 1.88 2.747 1.255 1.871 2.688 3.7 4.12 5.592 2.958 3.71 6.247 7.42 9.879 10.89a84.495 84.495 0 0 0 11.853 9.384 83.526 83.526 0 0 0 13.022 6.948l-1.22-.838c.492.223.97.453 1.452.647l1.433.536c.942.339 1.844.686 2.742.964l2.646.751 1.283.356 1.283.29 2.53.588c.84.2 1.695.339 2.55.53.857.174 1.717.397 2.605.578.89.174 1.797.368 2.732.589l1.303.08 1.308.026c-1.428-.019 1.44.578-.83.521 1.173.08 2.381.215 3.6.35 1.218.137 2.455.185 3.672.233-1.432-.152-2.87-.239-4.292-.468.378.012.76.03 1.14.053l1.139.04c.751.032 1.48.082 2.145.143.666.057 1.267.136 1.767.195.5.052.897.11 1.15.169 3.231-.06 2.27-.204.335-.368l-1.586-.126-1.649-.19c-1.055-.127-1.956-.242-2.305-.324-1.133.012-2.117-.103-3-.162a61.598 61.598 0 0 1 -2.356-.24c-1.396-.224-2.497-.477-3.585-.726-1.092-.226-2.146-.574-3.47-.893-.66-.173-1.394-.315-2.212-.527a86.767 86.767 0 0 0 -2.787-.687c-5.19-1.318.464.44.123.452" fill="#283241"/><path d="m251.348 644.326c.55.065.982.105 1.32.108-.466-.025-.897-.078-1.32-.108m-89.563-102.616-1.182-2.243c-.458-.73.217.466 1.182 2.243m101.225 103.443s0-.002-.02-.005l-.066.003zm4.338-.6c-.804.02-1.606-.025-2.41-.044l.418.14c.664-.024 1.329-.039 1.992-.097m-119.188-124.396-.123.08c.18.132.281.172.123-.08m-60.78-31.526 1.423.484a20.616 20.616 0 0 0 -1.423-.484" fill="#283241"/><path d="m16.023 378.468c2.146-3.955 5.249-9.078 6.876-11.99l-.054.35c1.22-2.061 5.426-8.655 2.386-4.63l-.576 1.086c-2.97 4.882-2.494 3.33-4.974 7.049-2.79 4.615-3.87 7.567-6.281 11.678-.982 1.842-.945 1.495-.76.894-2.294 4.217-2.704 6.108-4.044 9.1-.766.372-2.272 3.751-3.682 7.931-1.435 4.177-2.69 9.131-3.733 12.542-.393 2.218-.828 4.815-1.044 7.596-.216 2.777-.191 5.737.183 8.58-.13-.753-.17-.796-.161-.451.01.345.047 1.077.16 1.859.158 1.572.531 3.342.248 2.754.122.185.235.583.399 1.127.17.541.35 1.238.561 2.032.476 1.569 1.047 3.54 1.858 5.405 1.516 3.78 3.79 7.111 4.425 7.272 1.046 1.63 1.692 2.384 2 2.82.32.426.383.474.463.555.082.08.19.189.633.707.227.255.52.63.968 1.125.46.486 1.023 1.141 1.805 1.942-.093.065-1.126-1.02-1.548-1.442 2.34 2.701 4.115 3.575 6.151 5.71l.925.76.74.554c.427.317.73.535.943.681.426.293.495.3.496.245.008-.118-.279-.44 1.53.675 3.038 2.14 4.184 2.833 4.93 3.38.748.544 1.12.907 2.847 2.05.755.02 4.6 2.24 7.995 3.58-.83-.37-5.334-2.681-2.29-1.353 3.874 1.903 5.506 2.486 7.06 3.06l6.857 2.445c1.838.917-.047.214-1.577-.368-.768-.285-1.436-.564-1.513-.578-.076-.017.435.243 2.069.938-4.855-1.624-8.404-3.198-11.027-4.072 3.114 1.473 6.65 2.922 10.298 4.284 3.646 1.373 7.44 2.556 11.02 3.683 3.93 1.394-2.08-.492 1.008.597 6.997 2.56 10.982 3.225 16.559 5.278l-1.238-.18c3.527.867 12.448 4.19 19.029 6.27-.8-.394-1.318-.651-.438-.424-.286.497 9.192 2.8 15.416 5.622-.19-.262 1.275.158 3.282.828 1.991.709 4.53 1.656 6.45 2.51 1.315.686.967.691.909.766-3.089-1.497-4.677-2.012-6.098-2.446-1.417-.444-2.71-.71-5.262-1.62 1.068.364 2.299.816 3.603 1.309 1.302.5 2.662 1.072 4.014 1.62 1.35.552 2.659 1.15 3.88 1.656 1.22.51 2.306 1.022 3.225 1.379l-1.512-.415c2.818 1.336 4.08 1.865 5.389 2.395.657.258 1.302.561 2.133 1.013.825.46 1.87 1.012 3.202 1.967l-.653-.177c2.811 1.699 5.578 3.733 8.244 5.93a71.975 71.975 0 0 1 7.32 7.291c4.432 5.174 7.892 10.687 10.653 15.173.298.36-.117-.667-.613-1.826-.494-1.16-1.144-2.41-1.153-2.567-.43-.664-.827-1.3-1.233-1.89l-1.198-1.665c-.386-.528-.75-1.039-1.117-1.523-.384-.472-.755-.93-1.118-1.38l-1.075-1.32c-.354-.434-.742-.837-1.11-1.257-.755-.828-1.473-1.703-2.33-2.551l.283-.16c-.225-.167-.644-.555-1.113-1.003l-.723-.698c-.246-.23-.502-.442-.725-.636-.901-.775-1.41-1.172-.334.008-1.447-1.318-1.924-1.889-2.502-2.464-.283-.294-.58-.6-1.025-1.01a29.847 29.847 0 0 0 -.794-.705 41.93 41.93 0 0 0 -1.166-.868c.246-.01.917.377 1.523.782.6.414 1.165.81 1.273.72-.518-.41-1.016-.843-1.547-1.234l-1.602-1.16c1.063.675-1.788-1.551-.76-.906-3.08-1.993-5.191-3.4-7.39-4.748-1.104-.665-2.198-1.37-3.481-2.036l-2.034-1.074c-.731-.362-1.527-.717-2.386-1.106l1.879.928c.625.312 1.234.658 1.851.985-.056.074-.615-.17-1.363-.53-.75-.356-1.71-.786-2.535-1.156a20.39 20.39 0 0 0 -2.529-1.412c-.947-.443-2.088-1.014-3.858-1.79-3.128-1.138-4.968-1.511-9.171-3.087.51.001-1.224-.688-3.17-1.447-1.955-.736-4.124-1.54-4.47-1.82-1.02.004-8.253-2.71-8.915-2.707-2.294-.703-5.398-1.775-5.32-1.945l1.731.514-2.26-.768c.228.034.155-.022.424.06-2.017-.68-2.117-.448-4.687-1.483.05-.08 1.475.39 2.644.745-5.383-1.852-9.619-2.637-14.005-4.435-.943-.142-7.173-2.216-5.95-1.414-1.639-.686-.898-.75-5.456-2.24-2.71-.594-5.031-1.814-8.503-2.909 2.317.7 2.333.665 2.274.624-.06-.043-.189-.109 1.854.445-3.022-1.191-7.716-2.457-12.865-4.806-.5-.308-.442-.384-.945-.693-.98-.383-2.05-.765-3.075-1.225-1.03-.448-2.037-.934-2.878-1.53l.127.315c-3.376-1.828-8.06-4.483-11.278-7.068-.706-.389-1.385-.818-2.07-1.244l-1.03-.638-1.005-.675c-2.384-2.194-5.142-4.767-7.562-7.451-2.433-2.668-4.502-5.453-5.882-7.636-1.158-2.1-2.403-5.452-2.268-5.485.113.25.247.598.44.992l.659 1.335c-.335-.802-.69-1.648-.963-2.526-.141-.436-.303-.866-.428-1.301l-.362-1.284c-.467-1.676-.805-3.187-1.144-4.129-.657-3.52-.147-2.624-.317-5.266-.187-1.79-.287-4.035-.086-6.403.19-2.366.534-4.858 1.04-7.158.222-1.155.516-2.256.748-3.292l.735-2.825c.232-.842.419-1.58.545-2.18.14-.597.22-1.056.216-1.347l-.392 1.17-.431 1.387c-.321.985-.63 2.105-.958 3.309-.63 2.411-1.228 5.188-1.57 8.012.122-1.5-.191-.351.097-2.448.248-1.404.472-2.64.765-3.77.259-1.138.562-2.175.862-3.212.285-1.042.645-2.061.974-3.18.376-1.102.731-2.304 1.197-3.652l.226.79c1.844-4.508 3.54-8.824 5.327-12.838 1.787-4.008 3.663-7.7 5.86-10.836" fill="#283241"/><path d="m6.989 446.77-.496-.9-.448-.923c-.299-.615-.604-1.225-.852-1.86l.003.477c.289.562.632 1.1.922 1.647.287.55.6 1.064.87 1.558" fill="#283241"/><path d="m5.197 443.564c-.375-.746-.8-1.435-1.114-2.117.34.835.766 1.59 1.12 2.246l-.006-.13zm19.418-79.098c.526-.74 1.54-2.203 2.511-3.71-.72.934-2.056 2.911-2.51 3.71m2.565-4.051a112.1 112.1 0 0 0 -1.224 1.662l-.122.282c.442-.652.89-1.3 1.346-1.944m62.146-102.375c.29-1.064.48-2.154.713-3.232l.67-3.238c.105-.273.298-.932.498-1.735l.558-2.593c.359-1.675.64-2.91.515-1.699.103-.983.37-2.227.542-3.523l.591-3.714c.374-2.202.484-3.542.024-2.001-1.36 9.568-3.988 20.83-7.936 32.05-3.91 11.236-9.152 22.39-14.75 32.113l1.607-3.223a197.5 197.5 0 0 1 -1.921 3.566 177.455 177.455 0 0 1 -1.87 2.97c-1.195 1.833-2.225 3.46-3.297 4.97a146.935 146.935 0 0 0 -3.204 4.517c-.537.788-1.07 1.616-1.636 2.488a101.11 101.11 0 0 0 -1.859 2.74l.455-1.238c-1.695 2.061-3.135 4.17-4.671 6.261-1.565 2.073-3.168 4.15-5.089 6.194l.47-.316c-.933 1.15-1.352 1.563-2.29 2.735l.428-.418c-2.306 3.153-3.812 5.031-6.263 8.015-.263.131 1.062-1.46 1.77-2.43-1.19 1.32-2.839 3.886-4.653 6.28-1.52 1.805-.13-.138.023-.43-2.657 3.644-4.65 6.25-6.39 8.632-1.736 2.386-3.224 4.548-4.786 7.345-.258.569 1.494-1.805-.326.93 3.53-4.795 6.156-8.823 9.267-13.27l-.9 1.202c2.112-3.793 2.043-2.549 6.056-8.185-.938 1.584-2.748 3.98-3.375 5.01 5.178-6.072 6.692-9.248 10.43-13.012l-.35.468c.775-.888 2.019-2.603 3.113-4.039-.432.415-1.584 1.776-2.378 2.676 1.101-1.457 1.486-2.339 1.785-2.884 1.486-1.431 1.617-2.188 3.776-4.626.918-.742-1.55 2.244-2.221 3.265l2.35-3.13c2.208-2.82 2.382-2.612 3.58-3.924 1.73-2.507-1.193 1.313.113-.774.324-.353.764-.865 1.297-1.503.53-.64 1.172-1.39 1.801-2.292a496.855 496.855 0 0 0 4.437-6.216c1.51-2.334 3.033-4.81 4.456-7.1.365-.566.674-1.152.984-1.715l.897-1.641c.57-1.06 1.097-2.036 1.558-2.895-1.299 2.35-.246.95-1.894 3.763.631-.995 2.602-4.706 2.455-4.82l.482-.91.461-.953.968-1.958a277.977 277.977 0 0 1 2.053-4.013c1.307-2.718 2.564-5.41 3.687-7.669l-.77 1.259c.382-.989.814-2.102 1.29-3.33.489-1.222 1.05-2.544 1.653-3.962.633-1.406 1.168-2.957 1.761-4.576l.879-2.498c.294-.852.59-1.723.82-2.631l-.049.148c.327-1.16.53-2.266.817-3.604.145-.67.311-1.396.525-2.217.225-.819.416-1.754.72-2.812-.045.623-.217 1.507-.344 2.214-.145.702-.256 1.223-.113 1.138m4.81-25.828-.066 2.446c.41-2.654.523-6.006.265-5.455-.156 1.8-.597 4.117-.486 4.452.076-.289.163-.244.286-1.443m-.29-49.853c-.192-.961-.251-.681-.38-1.086.78 5.227 1.406 11.105 1.67 16.209l.114 1.873.057 1.784.086 3.23a89.58 89.58 0 0 1 -.07 4.638 56.05 56.05 0 0 0 .08 4c.053 1.17.174 2.46.101 4.704l-.385 2.004c.097 2.432-.95 9.766-.264 7.196.057-.265.016-2.117.26-4.168l.127.344.243-4.773.09 1.537c.354-3.25.21-4.406.105-5.738-.119-1.335-.187-2.848-.138-6.847l.37.052c-.013-5.357-.292-8.05-.36-12.775 0 0-.19-.03-.06.88.034.882-.046 2.035-.192 1.435-.377-4.025-.36-3.71-.178-3.103.085.303.178.683.238.634.067-.05.087-.528 0-1.94-.385-3.43-1.079-8.395-1.814-12.958-.732-4.565-1.59-8.711-1.833-10.608.22 1.61.028 1.249-.315.014-.365-1.228-.893-3.325-1.363-5.191-.309-1.738.513 1.124.767 1.71-.39-1.75-.664-3.194-1.207-4.893.226 1.141.145 1.369-.114.806-.277-.547-.744-1.919-1.44-3.818a288.47 288.47 0 0 1 3.343 12.265c.99 3.984 1.862 8.018 2.463 12.583" fill="#283241"/><path d="m93.156 179.713c.157.926.237 1.344.31 1.56-.163-1.235-.383-2.467-.568-3.617zm511.923 553.232c3.69.24 7.378.432 11.07.553-1.04.055-.638.214-3.163.073 2.446.21 3.83.266 5.11.286 1.279.028 2.45.05 4.473.17.6.22-1.188.144-2.835.045-1.647-.102-3.155-.2-1.999.044 2.85.189 7.119.374 9.43.139l4.521.41-1.532-.468c-1.82-.171-3.708.199-4.827-.141-.565-.205 1.274-.16 2.566-.151-2.927-.03-7.963-.66-13.87-1.06-6.242-.464-4.835.299-8.944.1" fill="#1dc287"/><path d="m604.681764 732.438041-.685329-.242205.478354.275783z" fill="#1dc287"/><path d="m592.63 731.434c1.92.2 3.84.386 5.762.543.61.113.945.245 1.34.371-.223-.124 1.346-.092 1.109-.203-2.579-.698-7.005-.777-10.07-1.219-8.045-1.522.398-.127-2.69-1.015 2.254.407 2.325.486 5.462 1.007-4.879-1.137-11.114-1.896-14.264-2.485.9.224 1.098.392 2.846.712l-3.283-.551c1.658.5 3.203.925 5.287 1.36 1.038.231 2.214.456 3.604.697 1.388.254 2.995.5 4.897.783" fill="#283241"/><path d="m602.865 732.78c-2.14-.204-2.934-.352-3.103-.421.542.17 1.252.343 3.103.42" fill="#1dc287"/><path d="m577.57 728.079c.346.107.934.219 1.709.354-.39-.102-.898-.197-1.709-.354m3.122 1.119c-1.318-.292-2.64-.563-3.951-.887.503.173 1.004.357 1.51.522.553.093 2.514.474 2.44.365m-115.932-94.318c.108.172.455.49 1.097.989.32.249.716.544 1.193.889l.775.556.874.674c-.387-.118-3.698-2.476-5.31-3.487 3.296 2.505-.198.155.543.926 3.765 2.652 5.53 3.728 9.348 6.874-.226-.116-.221.007.22.48l3.925 3.25 4.306 3.975c2.828 2.806 5.57 5.685 7.342 7.982l1.31 1.558c.427.502.849.988 1.226 1.5.781 1.001 1.54 1.973 2.311 2.958l1.176 1.487c.404.5.76 1.046 1.156 1.585l2.493 3.486c5.82 8.283 9.286 18.286 16.45 26.048 3.436 3.946 7.339 7.548 11.597 10.749 4.262 3.2 8.847 6.037 13.642 8.566l1.454.527 1.47.484c.43.306 1.577.887 2.564 1.322.983.442 1.775.807 1.442.802-1.053-.522-2.117-.926-3.39-1.546 2.008 1.17 4.843 2.379 7.819 3.532 2.99 1.12 6.121 2.179 8.753 3.079-.586-.262-1.34-.869.27-.42-.272.137 1.284.666 3.107 1.207.911.27 1.883.562 2.718.845.839.265 1.54.524 1.9.754 2.666.795 2.75.677 2.852.606.105-.084.238-.159 3.04.564.649-.097-5.356-1.449-6.3-1.947 1.789.288 5.038 1.397 4.846 1.063-4.481-1.167-10.89-2.802-17.72-5.152a135.14 135.14 0 0 1 -10.361-4.038c-3.434-1.504-6.755-3.217-9.829-4.978.463.195.94.367 1.415.538-3.18-1.722-7.205-4.249-10.767-7.088-3.571-2.824-6.68-5.917-8.464-8.18.197.279-.182-.045-.793-.727-.594-.696-1.495-1.684-2.333-2.735l-1.222-1.547-.564-.695-.47-.625c-.579-.753-.955-1.16-.911-.862-.965-1.557-1.225-2.048-2.558-4.275l-.486-.539c-1.762-3.252-1.252-2.856-3.322-6.616 1.142 2.572-.414-.137-1.174-1.133l-.404-.84-.455-.828-.932-1.687c-.632-1.135-1.27-2.285-1.903-3.42a642.9 642.9 0 0 0 -3.9-6.215c.154.313.305.706 1.08 1.994-1.62-2.508-1.55-1.92-2.077-2.511-1.754-2.255-1.344-2.208-1.143-2.192-.795-1.054-1.486-1.959-2.168-2.726-.696-.754-1.333-1.41-1.941-2.037-1.23-1.24-2.27-2.419-3.589-3.884l.791 1.172c-3.755-3.907-6.743-7.358-11.352-11.197-.987-1.064-.01-.315 1.462.893.366.305.772.627 1.169.976l1.17 1.071c.765.7 1.473 1.341 1.948 1.745-.84-.886-2.691-2.695-3.226-3.317l-3.819-2.926-1.07-.828c-.363-.27-.739-.523-1.102-.782l-2.087-1.471c1.308.784.462.01-.915-1.125-.346-.283-.72-.594-1.11-.896l-1.193-.867zm13.19 10.262c.579.448 1.05.861 1.343 1.084-.445-.38-.828-.767-1.489-1.344-.091-.023-.018.083.146.26m-13.19-10.262c-.01-.022-.08-.084-.08-.102-.498-.326-.34-.204.08.102" fill="#283241"/><path d="m489.562 658.59-.491-.601-.627-.746 1.118 1.348zm3.663 2.784c.648.974 1.56 2.294 2.6 3.78-.221-.46-.414-.846-2.6-3.78m19.308 30.853c.711.846.378.304.916.87l-.87-1.105a8.76 8.76 0 0 0 -.453-.587c-.167-.189-.072.058.407.822" fill="#283241"/><path d="m472.980248 640.798507-3.646832-2.760033-1.361301-.984232z" fill="#283241"/><path d="m388.491 606.824c.976.223 2.075.421 3.243.639 1.165.236 2.406.467 3.676.696l1.921.343c.644.118 1.284.262 1.924.392l3.74.801c4.407.951 4.715.902 4.972.81.128-.04.24-.081.844.014.301.05.727.124 1.335.264.605.152 1.394.36 2.43.642l-1.568.167 3.24.892 1.713.474 1.74.545 3.57 1.111c1.205.364 2.388.814 3.58 1.21 1.184.412 2.37.793 3.517 1.206 1.144.42 2.262.832 3.34 1.23 2.175.749 4.145 1.546 5.866 2.152.571.325 1.917 1.005-.159.194 2.636 1.11 3.379 1.274 4.343 1.536.481.132 1.014.296 1.854.647.834.362 2.004.853 3.663 1.819-1.616-.776-2.332-1.016-2.487-1.035-.157-.015.235.22.771.526 1.057.645 2.674 1.61 1.728 1.309l-1.007-.488c1.077.554 2.24 1.153 3.425 1.761.59.309 1.2.595 1.782.922l1.731.97 3.208 1.809c.973.567 1.803 1.125 2.474 1.556.195-.05-2.03-1.76 1.584.551-1.442-.966-.766-.73-.554-.77a167.82 167.82 0 0 1 -2.566-1.559c-.77-.458-1.477-.844-2.125-1.218-1.303-.74-2.418-1.366-3.627-1.962-2.091-1.353 1.504.742-.59-.61l-3.246-1.519c-2.294-1.272 2.49 1.1-1.113-.86-.448-.159-3.511-1.446-6.39-2.874l.863.34c-1.112-.52-2.482-1.078-3.428-1.473-.95-.385-1.494-.56-1.016-.174l-2.526-1.444c.128.126.25.265.375.398-1.54-.658-2.847-1.2-4.049-1.738-1.204-.534-2.31-1.05-3.502-1.506a117.85 117.85 0 0 0 -3.91-1.488c-1.472-.53-3.195-1.01-5.283-1.604 1.97.687.12.23-.953-.06 1.703.612 2.776.904 3.835 1.168l1.653.413c.593.174 1.257.38 2.068.658.206.188-1.087-.138-1.943-.323-.427-.094-.755-.129-.723-.075.03.058.416.216 1.38.597-1.044-.454-2.098-.789-3.093-1.125l-2.81-.918c-.864-.296-1.658-.542-2.342-.783-.684-.245-1.256-.49-1.688-.753-1.322-.37-2.438-.687-3.464-.928l-2.89-.634c-.932-.203-1.864-.41-2.901-.655a124.306 124.306 0 0 1 -3.551-.786l.18-.044c-.542.075-1.64-.215-3.126-.55-1.49-.31-3.367-.689-5.431-.873l2.882.604c-.166.123-1.563-.133-3.533-.452.23-.022.23-.022-.4-.19-.633.172-6.843-.75-7.641-.716a55.94 55.94 0 0 0 2.064.247l2.215.267c1.513.181 3.09.32 4.617.557-1.572-.122-1.14.196-3.71-.25" fill="#283241"/><path d="m442.794 622.114-1.658-.656c.665.295 1.273.546 1.658.656m-78.969-18.141c-3.5-.215.954-.183-2.32-.445-1.783.044-.763.148.264.301 1.026.15 2.058.312.315.37-2.138-.247-5.627-.01-7.054-.036 1.575-.131.664-.496.035-.574-1.35.115-4.38-.075-6.696-.025 1.418.004 1.828.064 1.729.083-.102.029-.714.039-1.343.082-1.258.072-2.583.15-.026.192-.37.226-5.695.497-7.852.5.149-.149 1.898-.236 3.337-.29.575-.15-.327-.187-1.472-.148-1.146.026-2.538.07-2.95-.036l-5.712.638c-2.29.256-4.78.453-6.957.67-4.35.429-7.432.764-4.973.928 1.855-.005 3.422-.267 5.417-.428-5.608.257-.06-.33.403-.475 2.385-.053 6.47-.552 5.548-.264-1.251.184-2.507.338-3.763.505 3.044-.144 6.334-.468 9.812-.646 3.473-.203 7.12-.327 10.824-.388 7.409-.108 15.053.103 22.013.638-2.007-.137-4.013-.308-6.022-.417.712-.157 3.563.058 5.781.124l-2.917-.621c1.736.153 3.407.208 3.245.346 1.07-.02 1.363-.04 1.233-.126-.13-.081-.686-.196-1.319-.307 2.259.14 3.566.319 4.75.42 1.182.111 2.239.176 3.987.268a48.123 48.123 0 0 0 -4.27-.566c-1.08-.098-1.91-.141-2.773-.186l-2.98-.144c-1.218-.064-2.754-.223-4.901-.4zm16.423 1.05a40.824 40.824 0 0 0 -1.817.01c.927.043 1.85.14 2.774.216zm-2.941.61c-.084-.1 1.022-.033.94-.134-3.478-.396-3.077-.23-.94.135m-42.146-1.384c-1.503.143-3.006.29-4.5.41.978-.039 1.956-.079 2.939-.134-.08-.085 1.003-.212 1.56-.276" fill="#283241"/><path d="m303.533 606.128c1.573.07 2.92.137 4.167.16l3.567.032 8.339.007c3.474-.369-1.634-.466-.147-.755-3.517.046-3.07.475-6.725.576-.674-.1-2.004-.135-3.604-.136-1.6.018-3.467-.042-5.206-.16.42.12.414.229-.391.276" fill="#283241"/><path d="m282.334 602.08-4.099-1.02c-1.308-.368-2.539-.748-3.599-1.14.353-.045 1.987.423 3.62.97-.487-.32-1.238-.55-2.232-.835-.496-.143-1.053-.3-1.664-.495a29.48 29.48 0 0 1 -1.963-.793c.24.126 1.265.56.43.332l-2.255-.835-1.537-.618c-.855-.334-1.433-.535-2.072-.776-1.245-.553-2.823-1.103-7.159-3.563-1.286-.646-2.518-1.364-2.421-1.052a22.055 22.055 0 0 1 -1.457-.996l-.947-.699-1.152-.873c-.34-.249-.695-.539-1.303-1.023-.6-.493-1.494-1.127-2.799-2.21.104.286 1.758 1.814 1.556 2.012l-1.35-1.04-1.158-.962-1.94-1.579a146.338 146.338 0 0 0 -2.746-2.339c-.778-.651-1.431-1.278-2.192-1.982a62.966 62.966 0 0 1 -1.211-1.168l-1.392-1.521.89.839.608.595.797.758c-.077-.208-.36-.522-.763-.93-.395-.417-.918-.92-1.507-1.476a47.644 47.644 0 0 1 -3.69-3.764l.475.028-.883-.93-.961-1.087c-.668-.763-1.41-1.576-2.127-2.443-.705-.877-1.418-1.779-2.096-2.667-.687-.88-1.269-1.799-1.81-2.629l.66.629c-.61-.8-1.235-1.615-1.867-2.44l-1.812-2.585-.905-1.313-.864-1.344-1.714-2.683a247.394 247.394 0 0 1 -5.828-10.167l-1.518-3.379c-2.19-4.195-1.188-2.07-.065.353 1.178 2.394 2.48 5.092.661 2.129.037-1.192-2.398-4.275-4.527-9.256-.893-2.4 2.497 4.868 1.515 2.204-.801-.938-1.335-2.556-2.666-5.101.546.424-2.671-5.4-1.573-3.958a242.544 242.544 0 0 0 -5.263-8.676c-.314-.76-.871-1.759-1.479-2.806-.608-1.046-1.26-2.144-1.869-3.043.737 1.155.998 1.687 1.07 1.89.07.204-.065.09-.194-.003-.257-.186-.485-.291 1.01 2.378 2.298 3.816 5.167 9.036 7.937 14.617l4.114 8.463c.662 1.405 1.383 2.759 2.056 4.092l1 1.968 1.011 1.88c.237.22.573.72.96 1.37l1.303 2.248c.944 1.602 1.886 3.291 2.522 3.944.028.288.383 1.056.418 1.353 1.958 3.024 1.798 2.62 1.243 1.666-.536-.968-1.428-2.511-.898-1.81a49.43 49.43 0 0 1 1.173 1.875c.353.577.675 1.087.92 1.52.497.861.731 1.383.59 1.304 1.426 2.149 1.578 2.217 1.51 2.052-.054-.174-.268-.62.593.38.54.99 1.07 1.993 1.626 2.982a127.926 127.926 0 0 0 8.434 9.802c3.178 3.258 6.693 6.465 10.495 9.416a91.802 91.802 0 0 0 12.112 7.973c4.221 2.335 8.596 4.26 12.894 5.841l-1.21-.736c3.854 1.544 7.258 2.302 10.51 3.046l2.442.499 1.217.264 1.231.235c.824.164 1.656.341 2.504.54.85.19 1.723.358 2.618.576.837.037 1.667.113 2.504.117-1.369-.025 1.373.587-.804.514 2.248.175 4.626.581 6.964.66-1.371-.158-2.743-.307-4.106-.53 1.448.071 2.965.159 4.238.3.636.07 1.213.15 1.69.228.478.068.856.135 1.096.2 3.1.024 2.183-.146.332-.36l-1.516-.17-1.578-.218c-1.01-.141-1.871-.271-2.205-.358-2.166-.103-3.793-.259-5.133-.459a53.485 53.485 0 0 1 -3.44-.7c-2.077-.544-4.095-1.09-8.152-1.948-5.005-1.186.455.41.122.446m10.425 2.792c.527.058.942.095 1.264.117-.444-.05-.86-.09-1.264-.117" fill="#283241"/><path d="m199.111 512.734-1.309-2.05c-.498-.659.244.428 1.31 2.05m104.812 93.118s0-.002-.02-.006l-.063.001zm4.178-.483c-.771-.011-1.54-.07-2.31-.11l.396.148c.638-.004 1.275-.006 1.914-.038m-123.867-112.044-.116.09c.182.112.282.143.116-.09m-58.688-30.038 1.348.51a18.522 18.522 0 0 0 -1.348-.51" fill="#283241"/><path d="m57.141 354.076c1.91-3.868 4.7-8.887 6.15-11.74l-.036.34c1.105-2.014 4.896-8.486 2.11-4.528l-.511 1.06c-2.668 4.788-2.285 3.272-4.532 6.923-2.504 4.527-3.425 7.399-5.586 11.426-.858 1.808-.857 1.464-.698.883-2.035 4.13-2.364 5.954-3.515 8.881-.758.37-2.037 3.68-3.234 7.737-.615 2.023-1.154 4.246-1.687 6.36-.498 2.124-.973 4.144-1.419 5.798-.648 4.255-1.227 10.074-.391 15.534-.25-1.445-.196-.15.022 1.35.082.752.22 1.55.3 2.092.075.542.085.829-.047.546.216.358.54 1.502.95 3.02.236.75.44 1.611.756 2.487.146.442.297.895.45 1.352.173.45.35.905.526 1.358 1.396 3.643 3.471 6.9 4.086 7.068.954 1.594 1.535 2.346 1.821 2.77.296.417.343.474.42.552.077.08.176.187.583.699l.88 1.118c.418.487.955 1.117 1.652 1.934-.093.058-1.034-1.027-1.429-1.442 2.125 2.69 3.813 3.578 5.655 5.727 1.269 1.165 2.023 1.72 2.413 2.025.397.296.464.305.47.25.004-.053-.053-.169.095-.12.145.051.5.26 1.347.827 2.815 2.183 3.88 2.9 4.57 3.458.695.55 1.027.928 2.633 2.098.733.034 4.315 2.336 7.521 3.744-.779-.39-5.001-2.785-2.135-1.397 3.633 1.98 5.177 2.598 6.644 3.205l6.482 2.59c1.723.955-.056.21-1.5-.404-.725-.303-1.357-.591-1.43-.609-.073-.016.408.25 1.946.98-4.595-1.725-7.934-3.374-10.417-4.303 2.925 1.534 6.256 3.06 9.704 4.496 3.445 1.447 7.04 2.712 10.432 3.915 3.716 1.48-1.977-.538.94.618 6.613 2.708 10.418 3.457 15.692 5.619l-1.183-.205c3.354.937 11.79 4.429 18.042 6.603-.755-.404-1.243-.667-.403-.43-.295.488 8.73 2.943 14.637 5.776-.175-.261 1.225.161 3.137.836 1.9.707 4.318 1.65 6.153 2.479 1.253.67.918.678.86.753-2.95-1.458-4.46-1.978-5.822-2.404-1.357-.436-2.59-.72-5.023-1.63 4.095 1.422 10.573 4.428 14.058 5.875l-1.454-.39c2.699 1.292 3.922 1.773 5.18 2.271.631.246 1.263.511 2.063.936.402.209.85.452 1.364.745.516.289 1.096.634 1.746 1.074l-.633-.147c1.344.818 2.746 1.612 4.089 2.538.674.457 1.37.891 2.037 1.375.666.485 1.333.973 2.002 1.462 2.628 2.018 5.205 4.159 7.506 6.475l.878.848.834.878 1.645 1.737 1.543 1.763c.508.581 1.018 1.147 1.48 1.739.94 1.17 1.89 2.274 2.72 3.397.849 1.107 1.687 2.151 2.425 3.177.31.32-.147-.643-.734-1.699-.598-1.047-1.29-2.213-1.316-2.358a32.414 32.414 0 0 0 -1.365-1.68l-1.278-1.496c-.819-.95-1.644-1.76-2.4-2.567l-.568-.593-.587-.56-1.163-1.113c-.76-.757-1.583-1.466-2.443-2.239l.268-.183c-.227-.143-.654-.485-1.133-.881l-1.5-1.148c-.91-.686-1.422-1.033-.324.038-1.453-1.188-1.996-1.644-2.559-2.191-.284-.27-.584-.549-1.03-.92-.446-.372-1.073-.79-1.97-1.39.241-.03.89.325 1.505.663.622.327 1.165.699 1.272.595a26.588 26.588 0 0 0 -1.562-1.074l-1.582-1.04c.523.297.081-.056-.367-.413-.455-.344-.926-.68-.404-.416-1.523-.876-2.77-1.68-3.949-2.35l-1.668-1.018c-.535-.332-1.074-.63-1.603-.947-1.06-.63-2.127-1.271-3.357-1.907l-1.954-1.016a95.687 95.687 0 0 0 -2.287-1.057c1.2.593 2.4 1.183 3.578 1.824-.057.075-.593-.153-1.313-.493l-2.431-1.103a20.311 20.311 0 0 0 -2.414-1.371c-.9-.437-1.996-.982-3.677-1.758-2.984-1.123-4.748-1.498-8.744-3.098.491.005-1.154-.694-3.002-1.466-1.853-.76-3.911-1.582-4.233-1.866-.983-.01-7.836-2.823-8.47-2.837-2.18-.737-5.12-1.867-5.037-2.033l1.644.544-2.142-.807c.217.038.15-.02.405.068-1.91-.717-2.018-.485-4.444-1.569.051-.08 1.4.42 2.51.795-5.097-1.95-9.136-2.824-13.275-4.709-.901-.162-6.798-2.367-5.66-1.542-1.544-.72-.829-.764-5.143-2.353-2.58-.653-4.755-1.921-8.046-3.086 2.196.75 2.217.709 2.16.67-.055-.044-.175-.113 1.763.486-2.851-1.25-7.307-2.621-12.149-5.072-.465-.318-.405-.392-.873-.71-.925-.402-1.934-.81-2.9-1.29-.971-.465-1.913-.977-2.691-1.587l.104.316c-3.154-1.895-7.529-4.635-10.49-7.26-.666-.397-1.289-.848-1.935-1.275a40.038 40.038 0 0 1 -1.896-1.34c-2.181-2.213-4.713-4.796-6.934-7.455-2.236-2.645-4.14-5.372-5.422-7.491-1.054-2.042-2.217-5.266-2.083-5.298.186.493.59 1.3 1.032 2.242-.302-.777-.643-1.59-.892-2.435l-.402-1.25-.337-1.237c-.24-.799-.41-1.57-.597-2.244-.2-.67-.35-1.261-.522-1.71-.09-.42-.162-.774-.22-1.077-.047-.305-.07-.56-.092-.778a8.176 8.176 0 0 1 -.038-.985c0-.523.08-.942-.005-2.21-.551-3.427-.287-8.594.52-13.032.75-4.455 1.865-8.207 1.779-9.328l-.693 2.482c-.255.959-.525 2.04-.793 3.205a58.442 58.442 0 0 0 -1.22 7.734c.035-1.444-.224-.334.002-2.35.34-2.715.794-4.743 1.307-6.749l.386-1.515c.142-.508.287-1.027.436-1.566.278-1.082.639-2.228.991-3.55l.278.757c1.578-4.394 3.057-8.588 4.605-12.505 1.555-3.91 3.209-7.521 5.21-10.6" fill="#283241"/><path d="m50.115 420.187-.448-.877-.406-.898c-.27-.598-.548-1.19-.773-1.805l-.014.462zm-1.641-3.118c-.347-.722-.734-1.395-1.035-2.05.32.804.707 1.54 1.036 2.175zm16.407-76.711c.47-.732 1.41-2.158 2.277-3.642-.649.924-1.881 2.853-2.277 3.642m2.314-3.974-1.117 1.634-.107.274c.41-.635.807-1.277 1.224-1.908m57.303-99.694c.479-2.063.89-4.14 1.336-6.205.098-.263.304-.89.478-1.663l.56-2.482c.362-1.603.644-2.785.518-1.623.515-3.745 2.178-11.784 1.193-8.852-1.432 9.16-4.03 19.936-7.762 30.717-3.703 10.794-8.56 21.56-13.69 31.018l1.477-3.123a173.17 173.17 0 0 1 -1.777 3.456 22.014 22.014 0 0 1 -.855 1.512l-.843 1.391c-1.096 1.792-2.087 3.349-3.032 4.853-1.005 1.466-1.975 2.871-2.957 4.413a88.44 88.44 0 0 0 -1.496 2.43c-.503.864-1.098 1.728-1.675 2.7l.387-1.209c-1.563 2.025-2.897 4.082-4.282 6.144-1.431 2.039-2.911 4.073-4.697 6.086l.446-.312c-.86 1.13-1.254 1.533-2.117 2.687l.4-.413c-2.109 3.097-3.501 4.939-5.76 7.873-.254.13.97-1.436 1.62-2.385-1.107 1.297-2.6 3.814-4.265 6.164-1.405 1.775-.134-.132.001-.418-2.43 3.579-4.261 6.135-5.852 8.477-1.587 2.341-2.942 4.462-4.335 7.203-.226.555 1.381-1.774-.275.906 3.231-4.707 5.61-8.657 8.447-13.022l-.825 1.182c1.886-3.716 1.883-2.504 5.546-8.036-.841 1.553-2.505 3.904-3.067 4.914 4.79-5.968 6.119-9.077 9.61-12.782l-.322.46c.717-.874 1.86-2.554 2.86-3.966-.403.409-1.467 1.748-2.205 2.631 1.013-1.429 1.346-2.294 1.612-2.827 1.39-1.41 1.49-2.144 3.48-4.548.862-.734-1.403 2.209-2.016 3.208l2.15-3.078c2.022-2.773 2.215-2.566 3.327-3.858 1.582-2.455-1.111 1.29.074-.752 1.264-1.346 4.008-5.355 6.926-9.818 1.374-2.286 2.8-4.68 4.103-6.913a407.971 407.971 0 0 0 3.154-6.073c-1.203 2.275-.21.919-1.742 3.645.59-.964 2.41-4.56 2.259-4.67 1.078-2.358 2.364-4.996 3.65-7.588 1.18-2.64 2.423-5.207 3.427-7.406-.22.414-.466.819-.712 1.22.357-.949.71-2.043 1.184-3.213.463-1.174.995-2.447 1.566-3.809.297-.676.56-1.392.83-2.129l.828-2.272c.543-1.562 1.162-3.184 1.606-4.927l-.048.143c.315-1.113.506-2.174.782-3.458.138-.642.297-1.34.503-2.127.185-.794.398-1.682.689-2.697-.078 1.196-.679 3.388-.422 3.22m4.826-24.737-.093 2.346c.444-2.537.587-5.753.327-5.23-.174 1.725-.644 3.939-.536 4.262.079-.275.165-.23.302-1.378m1.173-47.828c-.149-.928-.22-.662-.331-1.055.53 5.04.916 10.697.997 15.598l.046 1.8-.004 1.711-.02 3.1c-.04 1.899-.137 3.437-.209 4.444a47.335 47.335 0 0 0 -.028 3.838c.024 1.124.108 2.365-.014 4.514l-.426 1.911c.036 2.334-1.12 9.346-.394 6.897.06-.254.05-2.031.327-3.993l.12.334.341-4.572.058 1.476c.42-3.107.309-4.218.236-5.499-.085-1.283-.118-2.735.048-6.568l.37.06c.147-5.135-.033-7.724.07-12.255 0 0-.187-.036-.09.84 0 .847-.12 1.95-.244 1.37-.531-7.74.298 1.2.228-4.225-.257-3.3-.728-8.084-1.246-12.486-.521-4.403-1.146-8.415-1.291-10.244.134 1.554-.04 1.198-.316.002-.294-1.194-.707-3.226-1.068-5.036-.206-1.681.446 1.1.669 1.672-.291-1.696-.48-3.092-.918-4.746.155 1.106.063 1.32-.163.77-.242-.537-.63-1.872-1.2-3.726 1 4.187 1.843 8.058 2.62 11.908.772 3.86 1.445 7.761 1.832 12.16" fill="#283241"/><path d="m129.932 161.56c.107.895.173 1.298.234 1.51-.108-1.191-.261-2.383-.393-3.492l.159 1.983z" fill="#1dc287"/><g fill="#283241"><path d="m527.901 574.68c.155.347 1.121 1.319 3.293 3.234-.403-.08-3.143-2.622-4.535-3.687 2.755 2.63-.205.132.384.923 1.57 1.427 2.75 2.406 3.957 3.415a89.667 89.667 0 0 1 3.984 3.73c-.206-.117-.215 0 .16.46 1.943 1.916 4.597 4.477 7.03 7.225.615.68 1.237 1.353 1.831 2.028l1.681 2.032c1.07 1.326 2.098 2.528 2.85 3.632l2.196 2.924c.35.467.713.916 1.049 1.38.333.467.666.931 1.002 1.399l2.085 2.874c.743.985 1.427 2.089 2.226 3.254l1.882 2.947 1.783 3.028 1.799 3.038c.616 1.001 1.18 2.04 1.86 3.008 2.595 3.952 5.651 7.65 9.069 11.047 6.868 6.774 15.12 12.297 24.015 16.802l2.718.867c.395.287 1.475.772 2.376 1.187.898.422 1.642.724 1.327.74-.982-.451-1.94-.869-3.136-1.39 1.868 1.04 4.466 2.179 7.224 3.195 2.746 1.047 5.644 1.978 8.053 2.842-.536-.248-1.218-.845.263-.422-.26.151 1.181.608 2.849 1.14 1.677.5 3.576 1.084 4.237 1.518 2.449.741 2.522.653 2.621.57.1-.083.226-.165 2.798.528.303-.058-.926-.405-2.34-.79-1.414-.386-3.001-.858-3.438-1.075.83.117 1.982.46 2.91.725.93.252 1.632.438 1.547.274-4.11-1.125-10.005-2.647-16.292-4.813-1.579-.52-3.166-1.121-4.775-1.708-1.594-.63-3.21-1.247-4.79-1.94-3.173-1.355-6.282-2.83-9.137-4.41l1.322.453c-2.977-1.495-6.744-3.72-10.139-6.182-3.407-2.445-6.401-5.152-8.188-7.114.38.505-1.417-1.157-3.117-2.96-.87-.88-1.674-1.834-2.3-2.449-.616-.625-.972-.986-.925-.702-.967-1.386-1.327-1.75-2.695-3.713l-.525-.427c-.963-1.406-1.291-2.046-1.672-2.723-.358-.694-.725-1.442-1.736-3.112 1.11 2.307-.408-.097-1.156-.995-1.054-1.998-2.145-4.198-3.382-6.241l-1.766-3.035c-.561-.988-1.176-1.886-1.705-2.75.122.3.268.655.978 1.837-1.51-2.289-1.419-1.775-1.9-2.324-1.521-2.143-1.128-2.1-.935-2.085-2.835-3.945-4.586-5.327-6.77-8.219l.638 1.141a143.684 143.684 0 0 1 -2.302-2.798l-2.286-2.677c-.774-.888-1.525-1.82-2.38-2.724a157.277 157.277 0 0 0 -2.717-2.821c-.803-1.07.029-.304 1.275.926l2.025 2.019c.658.69 1.252 1.335 1.66 1.737-.348-.441-.913-1.11-1.446-1.744-.554-.616-1.072-1.201-1.292-1.508l-3.263-2.983-3.658-3.166c1.127.836.444.029-.72-1.129-1.187-1.13-2.841-2.62-3.539-3.264m-65.853-35.75c3.402 1.422 8.564 3.01 12.735 4.794.97.368 1.717.641 2.296.844.576.207.977.358 1.271.447.586.183.723.163.846.14.245-.037.45-.115 4.069 1.478-.487-.02-.978-.027-1.473-.027 1.804.79 3.761 1.743 5.813 2.695l3.073 1.55c1.034.521 2.082 1.028 3.094 1.587 2.033 1.095 4.063 2.123 5.903 3.167l5.063 2.73c.471.381 1.597 1.194-.181.172 4.466 2.788 2.776.74 8.51 4.855-5.652-3.41 1.588 1.49-.12.778a18.531 18.531 0 0 0 -.867-.556c.927.618 1.897 1.332 2.907 2.028.998.712 2.046 1.393 3 2.122 1.912 1.448 3.71 2.74 4.819 3.703.19-.034-1.637-1.864 1.4.658-1.204-1.048-.606-.767-.4-.791-1.61-1.278-2.904-2.19-3.992-3.036-1.102-.83-2.028-1.552-3.099-2.187-1.735-1.5 1.283.856-.452-.645l-2.77-1.79c-1.93-1.447 2.148 1.291-.905-.925-.211-.074-.966-.515-1.973-1.145-1.014-.62-2.245-1.48-3.5-2.26l.756.4c-1.952-1.141-4.596-2.924-3.844-2.066a54.057 54.057 0 0 0 -2.107-1.652l.283.42a119.524 119.524 0 0 1 -3.431-2.16c-1.013-.669-1.98-1.234-2.98-1.853-1.013-.6-2.058-1.262-3.34-1.916a106.27 106.27 0 0 0 -4.57-2.223c1.686.921.077.222-.874-.16 1.479.764 2.39 1.229 3.32 1.612.92.4 1.845.749 3.247 1.474.326.379-4.575-1.785-1.225.052a90.663 90.663 0 0 0 -5.07-2.714c-1.509-.738-2.73-1.381-3.427-2.01-2.284-1.082-3.926-1.68-5.548-2.348-1.63-.649-3.291-1.242-5.648-2.264l.171-.019c-.5-.019-1.471-.4-2.77-.927-1.304-.516-2.937-1.184-4.807-1.594.845.318 1.7.612 2.534.96-.168.086-1.404-.341-3.157-.894.213.011.213.011-.33-.246-.305.045-1.82-.418-3.369-.836-1.55-.42-3.113-.866-3.47-.936 1.156.378 2.458.732 3.816 1.09 1.353.368 2.748.78 4.109 1.197-1.42-.315-1.075.035-3.336-.773m-21.988-6.24c-3.158-.673.9-.056-2.044-.744-3.252-.444 3.623 1.081.42.738-.955-.258-2.227-.498-3.432-.65-1.204-.15-2.33-.269-2.978-.374 1.454.085.68-.396.12-.561-1.237-.135-3.976-.675-6.087-.986 2.57.472 1.479.352.326.225s-2.368-.243-.052.187c-.091.04-.466.034-1.006 0a46.634 46.634 0 0 1 -2.005-.133 70.777 70.777 0 0 1 -4.205-.487c.08-.067.519-.058 1.105-.018.584.05 1.312.143 1.971.214.547-.08-.271-.211-1.316-.366s-2.32-.28-2.68-.446l-11.724-.384c-4.022-.12-6.876-.14-4.65.31 1.693.223 3.153.156 4.993.24-5.146-.434-.015-.335.427-.422 2.182.23 5.972.265 5.093.436l-3.496.023c1.393.097 2.852.2 4.36.304l2.298.162 2.361.219 2.419.22 2.46.286 2.5.286 2.521.35a216.805 216.805 0 0 1 19.917 3.73c-1.791-.473-3.605-.848-5.412-1.257.334-.014 1.144.118 2.122.299l1.554.296 1.565.335a72.638 72.638 0 0 0 -2.551-1.032c1.563.36 3.06.713 2.894.81 1.946.303 1.103-.017-.006-.439 4.068.915 4.673 1.293 7.847 1.885a71.966 71.966 0 0 0 -3.794-1.16c-.965-.259-1.72-.39-2.5-.551a67.856 67.856 0 0 1 -2.686-.577c-1.093-.26-2.48-.562-4.401-1.07-.75.027-1.497.048-2.248.102"/><path d="m454.836362 536.039129-1.658001-.241654 2.494708.584043z"/><path d="m452.057 536.22c-.06-.111.933.12.875.01-1.543-.467-2.235-.626-2.304-.593-.068.03.493.234 1.429.583m-38.118-7.289-4.163-.183 2.702.246c-.06-.096.943-.074 1.46-.063m-29.153-1.39c5.748.692 8.214.761 14.697 1.548 3.216.006-1.44-.638-.05-.765-3.22-.345-2.86.158-6.214-.095-.604-.175-1.824-.287-3.29-.426-1.466-.125-3.179-.272-4.764-.512.376.147.363.255-.379.25"/><path d="m365.372 523.248c-.643-.146-1.29-.28-1.928-.408l-1.88-.412c-1.224-.27-2.379-.537-3.365-.878.161-.032.623.043 1.235.182.615.129 1.382.313 2.147.524-.458-.286-1.166-.447-2.098-.654-.925-.226-2.076-.499-3.414-.982.228.1 1.202.427.414.284-3.38-1.026-4.35-1.251-5.559-1.601a57.436 57.436 0 0 1 -2.331-.714c-1.049-.373-2.493-.88-4.617-1.752-1.266-.404-2.487-.888-2.362-.6-4.688-2.317-2.307-1.202-7.843-4.118.144.24 1.88 1.387 1.722 1.614a82.921 82.921 0 0 1 -2.604-1.395l-2.029-1.089c-1.18-.667-2.09-1.156-2.913-1.594-.822-.442-1.538-.87-2.358-1.356-.408-.247-.842-.51-1.316-.817a84.106 84.106 0 0 1 -1.556-1.088c.554.319 1.2.704 2.504 1.507-.106-.179-.421-.408-.863-.697a32.696 32.696 0 0 0 -1.654-1.018 46.023 46.023 0 0 1 -4.09-2.61l.446-.095c-2.403-1.613-6.549-4.46-9.115-7.076l.736.409c-5.854-4.551-11.719-10.983-15.825-15.763-.67-.918-1.313-1.856-1.97-2.78a90.198 90.198 0 0 1 -1.379-1.638c-.24-.283-.29-.322-.211-.191.079.13.288.43.566.82l1.02 1.347c1.471 1.965 3.17 4.134.952 1.827-.063-.57-.804-1.415-1.894-2.627a52.939 52.939 0 0 1 -3.862-4.908c-1.22-2.014 3.14 3.936 1.792 1.696-.904-.689-1.675-2.059-3.348-4.108.582.277-3.33-4.438-2.073-3.336l-.763-.885-.802-.853-1.605-1.703-3.201-3.398c-.879-1.227-2.762-3.179-4.148-4.612 3.431 3.685-1.259-.704 2.483 3.507l1.109 1.152 1.123 1.296 2.425 2.829 1.288 1.509.66.775.633.813 2.585 3.354a569.462 569.462 0 0 1 5.233 6.902c.886 1.124 1.76 2.232 2.612 3.31l2.55 3.081c.512.302 1.63 1.512 2.765 2.794 1.147 1.273 2.39 2.544 3.07 3.025.067.268.535.893.627 1.153 4.812 4.562-.961-1.244.3-.222a46.74 46.74 0 0 1 2.574 2.62c.626.668.943 1.089.794 1.053 3.502 3.208.452.285 2.41 1.723l2.07 2.349a122.463 122.463 0 0 0 9.622 7.008 121.948 121.948 0 0 0 11.263 6.445 130.545 130.545 0 0 0 12.215 5.384c4.146 1.579 8.311 2.948 12.35 4.148l-1.155-.608c3.655 1.101 6.785 1.756 9.814 2.31 3.022.589 5.94 1.104 9.213 1.994.768.063 1.54.094 2.309.143-1.26-.067 1.236.626-.763.492 1.03.119 2.086.298 3.153.47 1.07.159 2.148.32 3.216.432l-3.746-.685c2.664.167 5.55.718 6.415 1.027 5.68.444-3.3-.893-4.498-1.348-3.99-.337-5.957-.815-7.865-1.334l-3.07-.823c-1.172-.295-2.58-.594-4.457-.975-4.668-.884.432.364.115.443m9.574 2.678c.485.058.866.094 1.163.115-.409-.05-.79-.086-1.163-.115m-101.016-70.224c-.413-.43-.872-.963-1.554-1.61-.3-.237-.222-.155.096.137.319.292.831.837 1.458 1.473"/><path d="m385.164 527.29-.017-.005-.059-.004.076.01m3.876-.21c-.705-.086-1.412-.163-2.115-.261l.353.174 1.762.086zm-131.945-86.33-.1.107c.181.077.278.089.1-.107m-54.319-27.584 1.203.557a16.31 16.31 0 0 0 -1.203-.557"/><path d="m139.192 306.04c1.419-3.707 3.53-8.553 4.62-11.29l.005.32c.437-.963 1.367-3.015 1.913-4.346.573-1.316.744-1.92-.396-.003l-.364 1.024c-2.03 4.62-1.876 3.163-3.606 6.713a66.186 66.186 0 0 0 -1.24 3c-.32.939-.62 1.812-.913 2.668a75.7 75.7 0 0 1 -.906 2.557c-.31.869-.633 1.773-1.042 2.744-.639 1.728-.677 1.409-.586.86-.8 1.963-1.133 3.41-1.459 4.676l-.937 3.786c-.347.2-.727 1.088-1.142 2.398-.104.327-.21.68-.316 1.057l-.271 1.206-.567 2.71c-.216.948-.34 1.957-.499 2.964-.16 1.007-.321 2.022-.48 3.013a70.647 70.647 0 0 1 -.384 2.884c-.145.914-.318 1.77-.43 2.55-.274 3.957-.304 9.32.694 14.288-.353-1.308-.168-.132.047 1.243.163 1.385.608 2.918.304 2.417.244.315.568 1.358.93 2.757.197.696.487 1.457.743 2.272l.406 1.246c.14.421.261.854.45 1.26l1.026 2.416.49 1.113c.183.341.368.663.54.963.692 1.197 1.247 2.02 1.53 2.114.36.779.741 1.302.985 1.727l.56.902c.25.398.294.45.357.53.156.137.225.493 2.613 3.644-.083.042-.894-1.001-1.23-1.407.906 1.28 1.68 2.21 2.472 3.024.81.801 1.551 1.563 2.288 2.651.514.605.964 1.02 1.306 1.342.342.323.583.545.756.695.345.3.408.31.419.259.022-.103-.16-.45 1.268.763.295.284.555.558.815.79l.722.628 1.1.972c.601.539.963.883 1.25 1.175.564.597.856.945 2.226 2.157.356.02 1.293.647 2.48 1.487a72.763 72.763 0 0 0 4.115 2.555c-.662-.454-4.36-2.956-1.826-1.479 1.593 1.04 2.69 1.8 3.606 2.294.91.503 1.574.845 2.226 1.175l2.16 1.1c.866.451 2 .96 3.586 1.765 3.001 2.04-6.307-3.263-.913-.079-1.019-.485-1.993-.913-2.867-1.384l-2.449-1.323a90.123 90.123 0 0 0 -2.123-1.108c-.656-.329-1.233-.67-1.788-.927 1.253.865 2.656 1.641 4.086 2.47l2.18 1.25c.736.418 1.51.782 2.274 1.177 1.54.766 3.075 1.58 4.638 2.296l4.623 2.109c3.288 1.654-1.778-.636.806.658 5.828 3.054 9.301 3.947 13.966 6.35l-1.078-.262c1.506.55 4.127 1.79 7.082 3.166 2.951 1.385 6.224 2.941 9.035 4.115-.665-.424-1.095-.7-.335-.436-.315.465 7.839 3.22 13.15 6.064-.283-.531 5.096 1.744 8.464 3.275 1.14.634.823.66.767.73-5.395-2.737-5.463-2.14-9.883-3.976 1.857.73 4.244 1.856 6.583 2.933l3.388 1.552c1.057.493 2.027.926 2.834 1.249l-1.345-.35c2.468 1.228 3.622 1.618 4.793 2.047 1.163.444 2.33.96 4.824 2.415l-.6-.089c2.597 1.295 5.175 2.889 7.814 4.425a29.94 29.94 0 0 1 1.941 1.221l1.914 1.265 1.909 1.258c.315.212.638.41.944.632l.907.675 3.573 2.643.876.641.828.682 1.622 1.338 3.115 2.523c.953.86 1.873 1.676 2.755 2.437.7.447-2.419-3.105-2.546-3.34-2.193-1.734-3.931-3.085-5.58-4.273-1.704-1.119-3.273-2.136-5.025-3.335l.23-.224c-.432-.224-1.773-.953-2.688-1.461-.92-.501-1.438-.748-.302.091-1.494-.872-2.005-1.287-2.572-1.736-.285-.222-.58-.46-1.025-.755-.454-.28-1.057-.62-1.939-1.079.45-.115 2.531 1.02 2.69.84-1.009-.573-2.055-1.078-3.079-1.62 1.018.44-1.74-1.136-.756-.716-2.862-1.476-4.848-2.492-6.819-3.615-.991-.546-1.968-1.144-3.105-1.71a98.311 98.311 0 0 0 -3.905-1.881l3.288 1.67c-.108.153-1.996-.79-3.451-1.441a23.375 23.375 0 0 0 -2.19-1.317l-3.343-1.682c-2.716-1.101-4.328-1.498-7.938-3.129.914.031-5.909-2.89-6.46-3.458-.916-.033-7.033-3.039-7.618-3.086-1.953-.814-4.573-2.054-4.479-2.214l1.473.606-1.91-.887c.198.046.142-.012.37.084-1.704-.787-1.827-.564-3.973-1.735.056-.077 1.26.474 2.254.89-4.546-2.129-8.186-3.23-11.836-5.277-.83-.183-6.05-2.697-5.086-1.82-1.352-.798-.683-.802-4.514-2.597-1.163-.39-2.213-.93-3.346-1.525-1.138-.584-2.313-1.299-3.788-1.94 3.93 1.668.055-.062 3.509 1.358-1.254-.704-2.857-1.47-4.714-2.338-.463-.222-.947-.436-1.431-.684l-1.473-.796a96.498 96.498 0 0 1 -3.122-1.778c-.405-.322-.344-.384-.736-.731-1.6-.927-3.559-1.848-4.886-3.093l.055.316c-.666-.525-1.406-1.09-2.185-1.68-.39-.293-.79-.594-1.194-.9-.407-.3-.818-.61-1.2-.954l-2.323-2.017c-.376-.335-.748-.662-1.1-.993l-.966-1.028-1.681-1.314c-.562-.44-1.139-.868-1.651-1.361a60.398 60.398 0 0 0 -1.397-1.732c-.248-.29-.498-.586-.751-.883l-.385-.445-.357-.474c-.48-.633-.973-1.268-1.474-1.898-.499-.633-1.029-1.244-1.462-1.913-.462-.65-.92-1.294-1.364-1.922l-.672-.923c-.209-.312-.393-.63-.586-.936l-1.108-1.757c-.348-.557-.713-1.065-.963-1.575-.414-.97-.92-2.185-1.31-3.158-.203-.483-.297-.938-.393-1.25-.086-.315-.128-.507-.105-.512l.373.883c.077.178.149.373.244.572l.317.617c-.333-.694-.539-1.483-.79-2.254l-.722-2.278c-.388-1.488-.719-2.816-1.11-3.623-.238-.756-.283-1.298-.339-1.696a7.123 7.123 0 0 1 -.053-.91c.004-.484.043-.87-.117-2.03-.589-3.13-.838-7.875-.378-12.012l.11-1.524.186-1.44c.119-.929.221-1.792.3-2.559.059-.77.177-1.43.218-1.97.048-.539.052-.952.003-1.208l-.45 2.329-.424 3.01-.231 1.687-.128 1.783-.117 1.842c-.019.31-.036.622-.054.934-.006.312.005.626.008.94-.097-1.328-.278-.291-.19-2.155.068-1.257.137-2.362.227-3.388l.429-2.905.21-1.424c.065-.48.183-.963.272-1.47.193-1.011.386-2.099.581-3.343l.365.676.184-.781.215-.77.404-1.53c.268-1.013.475-2.028.74-3.015.27-.986.526-1.962.772-2.926.243-.967.48-1.921.773-2.844 1.063-3.724 2.255-7.181 3.841-10.166"/><path d="m136.806 367.878-.757-1.647-.617-1.706-.037.432c.248.5.452 1.026.709 1.51.257.483.496.958.702 1.411m-1.412-2.921a63.353 63.353 0 0 0 -.937-1.897c.316.73.63 1.426.932 2.013zm9.743-72.135c.375-.708 1.09-2.106 1.794-3.522-.55.884-1.505 2.761-1.794 3.522"/><path d="m146.927386 288.987227-.915424 1.575983-.070459.263122z"/><path d="m194.696 194.212 1.268-5.706c.427-.95 1.802-7.42 1.55-5.28.504-3.449 2.33-10.787 1.282-8.129-1.593 8.393-4.16 18.258-7.517 28.217-3.339 9.967-7.492 20.004-11.744 28.953l1.22-2.938a154.755 154.755 0 0 1 -1.49 3.253l-.692 1.444c-.234.46-.474.896-.703 1.322-.922 1.7-1.762 3.178-2.561 4.605-.39.72-.801 1.409-1.215 2.103-.41.696-.815 1.401-1.221 2.138a73.944 73.944 0 0 0 -1.232 2.323l-.63 1.271-.693 1.34.25-1.151c-1.31 1.96-2.391 3.94-3.523 5.927-1.14 1.985-2.36 3.958-3.881 5.914l.4-.31c-.715 1.095-1.058 1.487-1.763 2.61l.342-.404c-1.687 3.01-2.874 4.774-4.722 7.638-.233.133.78-1.39 1.3-2.315-.924 1.27-2.083 3.706-3.46 5.971-1.147 1.74-.153-.123-.045-.393a256.437 256.437 0 0 1 -2.614 4.563 135.61 135.61 0 0 0 -2.112 3.66 91.05 91.05 0 0 0 -1.794 3.337c-.568 1.121-1.072 2.308-1.599 3.62-.156.532 1.141-1.727-.162.863.654-1.14 1.254-2.237 1.819-3.308l1.674-3.12 1.583-3.073c.543-1.018 1.092-2.044 1.658-3.1l-.67 1.146c1.418-3.57 1.53-2.445 4.49-7.787-.626 1.507-2.028 3.757-2.435 4.746 1.99-2.91 3.24-5.091 4.332-7.025 1.123-1.913 2.102-3.57 3.583-5.382l-.259.446c.593-.855 1.53-2.471 2.35-3.838-.35.399-1.239 1.697-1.862 2.554.831-1.38 1.062-2.208 1.264-2.72 1.198-1.376 1.214-2.076 2.864-4.421.753-.726-1.102 2.141-1.589 3.106.579-.995 1.17-1.986 1.734-2.989 1.677-2.679 1.887-2.49 2.833-3.743 1.28-2.363-.946 1.252-.008-.71.258-.337.603-.823 1.017-1.43.39-.619.846-1.36 1.348-2.19l1.627-2.73c.578-.979 1.192-2.01 1.753-3.102l1.74-3.296c.571-1.107 1.172-2.188 1.663-3.274a354.893 354.893 0 0 0 2.649-5.715c-1.014 2.142-.138.862-1.442 3.428.505-.91 2.04-4.285 1.848-4.405.453-1.104.953-2.274 1.48-3.47.519-1.199 1.107-2.406 1.608-3.64l1.555-3.6c.514-1.158 1.013-2.264 1.428-3.295l-.625 1.14c.51-1.805 1.388-3.992 2.41-6.513.474-1.273.976-2.633 1.485-4.068l.762-2.21c.25-.756.463-1.54.688-2.336l-.045.131c.293-1.023.464-2.002.716-3.185.266-1.18.557-2.578 1.114-4.44-.075 1.103-.648 3.116-.379 2.972m252.47 249.853c-2.382-.537-4.825-.888-6.682-1.428.298-.075 1.73.183 3.158.544-.854-.535-2.648-.527-5.158-1.358.214.087 1.127.362.39.262-6.356-1.583-3.658-.546-11.864-2.832-1.217-.207-2.38-.56-2.241-.283-2.293-.785-2.85-1.012-3.525-1.269-.671-.268-1.48-.503-4.207-1.497.17.189 1.911 1.04 1.792 1.293-3.868-1.415-5.884-1.989-7.528-2.522-1.638-.542-2.933-.952-5.36-1.952.563.18 1.244.343 2.571.844-.257-.295-1.3-.639-2.62-1.039a46.473 46.473 0 0 1 -4.233-1.508l.388-.204-2.191-.796c-.408-.147-.831-.302-1.266-.46-.432-.164-.864-.357-1.306-.542-1.763-.753-3.592-1.576-5.082-2.373l.769.161c-.396-.162-.802-.318-1.2-.494l-1.193-.565-2.42-1.169-2.439-1.2c-.813-.404-1.583-.882-2.368-1.317l-4.547-2.597a316.95 316.95 0 0 0 -3.993-2.542c-.833-.642-1.695-1.24-2.5-1.915-3.303-2.292-1.718-1.08.071.321 1.85 1.314 3.945 2.767 1.333 1.361-.438-.931-3.519-2.242-7.077-5.182-1.591-1.48 3.812 2.67 2.05 1.016-1.002-.356-2.022-1.374-4.028-2.784.603.085-4.072-3.128-2.661-2.477l-1.807-1.19-1.855-1.117-3.704-2.229c-.516-.477-1.324-1.02-2.19-1.579a100.465 100.465 0 0 0 -2.584-1.601c3.934 2.495-1.313-.31 3.019 2.593.82.477 1.661 1.069 2.571 1.671l2.86 1.925 1.52 1.03 1.522 1.13 3.14 2.34 6.434 4.788c.536.388 1.045.808 1.59 1.164l1.608 1.07 3.071 2.065c.273.057.727.294 1.28.627.561.314 1.24.696 1.922 1.098 1.367.8 2.783 1.638 3.52 1.872.129.223.695.677.833.906 5.503 2.71-1.186-.836.221-.299 2.409 1.176 4.23 2.361 3.945 2.384 3.908 2.005.483.12 2.574.934l2.427 1.579c6.248 2.838 13.775 5.485 21.61 7.847 7.842 2.361 16 4.454 23.563 6.306l-1.087-.543c6.845 1.763 11.651 1.995 17.636 3.903l2.132.214c-1.163-.11 1.105.666-.736.464 1.89.31 3.87.843 5.827 1.176l-3.413-.87c2.456.286 5.082 1 5.847 1.382 5.204.849-2.957-1.143-4.047-1.61-7.351-1.054-7.19-2.055-14.184-3.367-4.336-.801.4.356.101.44m-97.307-44.22c-.468-.29-1.02-.633-1.757-1.094-.632-.31.344.24 1.757 1.095m-18.028-10.42-.081.12c.178.04.27.034.081-.12m-50.413-25.103 1.075.588c-.33-.205-.713-.406-1.075-.588"/><path d="m221.19 259.402.71-2.842.825-2.955c.517-1.955 1.072-3.775 1.402-5.099l.053.298c.513-1.89 2.583-7.935.882-4.175l-.23.979c-.692 2.23-.997 3.02-1.335 3.668-.316.654-.682 1.157-1.263 2.89-.607 2.119-1.017 3.807-1.309 5.46-.303 1.65-.68 3.208-1.166 5.095-.375 1.663-.46 1.371-.45.855-.234.952-.418 1.763-.54 2.49a45.63 45.63 0 0 0 -.246 1.974l-.185 1.748-.222 1.84c-.612.44-1.079 3.429-1.282 7.027-.028.45-.076.907-.088 1.371-.013.465-.024.935-.038 1.408-.026.944-.06 1.893-.107 2.82a65.832 65.832 0 0 1 -.053 2.69c-.027.856-.124 1.662-.158 2.39.172 3.666.579 8.59 1.787 13.118-.834-2.367.973 4.294.467 3.371.523.546 1.335 3.809 2.557 6.888.26.786.62 1.527.938 2.234.322.707.631 1.367.916 1.938.268.58.592 1.029.83 1.371.245.338.445.549.585.591 1.394 2.84 1.526 2.843 1.624 3 .058.074.133.173.43.645l.635 1.03c.293.46.625 1.087 1.165 1.824-.043.02-.245-.217-.474-.506-.22-.296-.446-.659-.586-.858.18.316.348.615.53.884.19.263.377.508.56.741.365.466.715.88 1.05 1.285.336.405.657.8.965 1.229.31.426.649.855.957 1.377 1.86 2.268 2.06 2.42 2.093 2.322.039-.103-.116-.425 1.16.756a153.789 153.789 0 0 1 2.21 2.445c.514.54.834.872 1.078 1.161.492.574.716.937 1.833 2.216.317.06 1.15.691 2.199 1.535 1.053.837 2.29 1.932 3.56 2.72-.62-.413-3.718-3.15-1.554-1.52 5.537 4.355 4.61 3.238 10.127 6.823 1.3 1.065-.107.208-1.214-.54-1.097-.76-1.94-1.355.36.415-1.78-1.09-3.32-2.088-4.673-2.938-1.307-.912-2.43-1.67-3.422-2.224 1.124.847 2.293 1.761 3.537 2.65l3.9 2.615c2.691 1.694 5.477 3.354 8.112 4.921 2.848 1.869-1.575-.757.663.706 1.254.864 2.415 1.543 3.492 2.154 1.076.61 2.073 1.145 3.037 1.658.964.515 1.894 1.008 2.838 1.54.471.265.946.541 1.43.831.491.28.991.577 1.507.897l-.985-.306c1.36.603 3.683 1.94 6.29 3.46 1.298.77 2.689 1.545 4.069 2.29 1.377.75 2.739 1.474 3.998 2.108-.584-.442-.96-.73-.274-.442-.35.476 7.057 3.41 11.862 6.223-.232-.52 4.673 1.726 7.777 3.151 1.042.607.75.628.693.703-4.955-2.591-5.032-2.026-9.084-3.828 1.695.733 3.883 1.82 6.028 2.863 2.153 1.024 4.257 2.013 5.76 2.591l-1.257-.296c4.59 2.243 4.307 1.353 9.017 3.877l-.564-.045a484.9 484.9 0 0 1 15.063 7.403l3.666 1.874 3.487 1.852c1.129.602 2.246 1.145 3.288 1.719 1.044.569 2.05 1.103 3.008 1.596.736.234-2.824-2.292-2.959-2.52-2.293-1.176-4.137-2.034-5.838-2.833-1.71-.78-3.308-1.443-5.089-2.274l.193-.258c-.883-.232-5.185-2.175-2.913-.879-2.95-1.251-2.058-1.314-5.443-2.75.42-.172 2.4.756 2.555.522l-2.958-1.245c.973.318-1.68-.922-.74-.619-5.523-2.184-7.403-3.664-13.01-6.14l3.047 1.517c-.103.156-1.858-.693-3.206-1.285-1.39-.954-2.305-1.351-5.087-2.813-2.485-1.064-3.983-1.434-7.267-3.057.848.047-5.32-2.945-5.79-3.518-.878-.015-6.305-3.217-6.851-3.278-1.76-.86-4.095-2.175-3.981-2.344l1.313.665c-.572-.306-1.127-.643-1.69-.964.18.057.133-.004.335.103-1.503-.863-1.643-.65-3.52-1.914.062-.072 1.125.532 2.008.993-2.002-1.171-3.833-2.058-5.563-2.925-1.725-.877-3.322-1.784-4.9-2.905-.741-.253-5.345-2.994-4.549-2.085-1.175-.85-.536-.828-3.875-2.867-2.067-.937-3.63-2.43-6.253-3.85 3.515 1.834.064-.066 3.154 1.515-2.184-1.525-5.752-3.278-9.41-6.094-.334-.344-.264-.408-.6-.754-.712-.48-1.521-.941-2.256-1.489-.73-.554-1.427-1.142-1.98-1.776l.017.305c-.576-.533-1.243-1.08-1.901-1.698l-2.019-1.945c-1.408-1.288-2.648-2.783-3.728-4.068-.25-.216-.507-.425-.75-.646l-.71-.685-1.428-1.374c-.791-1.06-1.57-2.265-2.426-3.46l-.65-.898a11.99 11.99 0 0 1 -.639-.916c-.408-.624-.823-1.244-1.24-1.855-.87-1.199-1.59-2.449-2.31-3.58-.35-.571-.729-1.1-1.02-1.632l-.845-1.483c-.39-.894-.92-1.99-1.204-2.923-.315-.92-.534-1.611-.489-1.623l.893 1.908c-.24-.67-.495-1.376-.75-2.083-.25-.708-.512-1.412-.692-2.103-.396-1.369-.809-2.569-1.195-3.3-.765-2.825-.276-2.139-.679-4.271a45.775 45.775 0 0 1 -.533-2.39l-.255-1.342c-.063-.463-.11-.94-.164-1.422-.1-.965-.206-1.958-.287-2.95l-.096-2.951c-.011-.48-.041-.953-.039-1.413l.023-1.344c.01-.867.014-1.672.002-2.385.002-1.425.013-2.485-.16-2.946l-.155 2.19c-.048.844-.052 1.792-.084 2.81l-.035 1.576c-.012.539.03 1.091.045 1.653.057 1.12.067 2.282.189 3.436-.208-1.214-.268-.244-.38-1.966-.057-1.163-.118-2.185-.112-3.138l.093-2.715.043-1.33.1-1.38c.065-.95.12-1.971.157-3.136l.447.584c.113-.988.294-1.956.403-2.92.134-.96.19-1.917.34-2.851.278-1.87.422-3.713.736-5.477l.421-2.614c.134-.86.346-1.688.529-2.507.193-.818.397-1.618.618-2.396.22-.78.508-1.526.79-2.255"/><path d="m223.987 317.23c-.423-1.04-.8-2.1-1.2-3.142l-.042.403c.47.922.894 1.884 1.242 2.74"/><path d="m222.745 314.49c-.297-.615-.638-1.186-.876-1.753l.195.511.227.478c.151.31.3.604.447.873l.007-.108zm2.391-67.9c.272-.689.822-2.034 1.283-3.423-.388.879-1.094 2.696-1.283 3.424"/><path d="m226.37015 242.875246-.661109 1.55011-.034128.250462z"/><path d="m264.59 152.15 1.233-5.27c.417-.871 1.839-6.828 1.57-4.848.52-3.19 2.517-9.903 1.41-7.492-1.802 7.705-4.372 16.779-7.422 26.023-3.04 9.249-6.571 18.66-10.006 27.167l.967-2.783c-3.357 8.94-5.668 11.75-8.342 18.975l.106-1.097c-2.082 3.829-3.287 7.705-5.781 11.568l.352-.317c-.555 1.075-.824 1.474-1.376 2.57l.282-.402a79.164 79.164 0 0 1 -1.753 3.783c-.554 1.16-1.135 2.3-1.865 3.7-.21.14.586-1.355.977-2.255-.732 1.255-1.591 3.596-2.589 5.839-.899 1.706-.157-.101-.098-.366-2.905 6.77-4.534 9.735-5.895 14.802-.074.51.859-1.712-.031.82l1.338-3.226c.42-1.039.81-2.051 1.184-3.056l2.334-6.014a36.39 36.39 0 0 0 -.496 1.123c.435-1.729.76-2.316 1.208-3.138.47-.814 1.027-1.878 2.144-4.475-.443 1.442-1.451 3.678-1.74 4.622 3.106-5.73 3.66-8.577 6.096-12.174l-.196.434c.473-.837 1.154-2.428 1.792-3.757-.285.399-1.004 1.666-1.484 2.52.617-1.359.751-2.142.879-2.637.999-1.366.913-2.03 2.244-4.33.646-.727-.82 2.074-1.166 3.014l1.322-2.912c1.318-2.611 1.545-2.446 2.32-3.675.968-2.292-.774 1.228-.092-.669.21-.33.49-.806.82-1.399.325-.596.687-1.315 1.093-2.117.793-1.61 1.784-3.542 2.708-5.618.92-2.075 1.91-4.233 2.741-6.273.83-2.041 1.582-3.932 2.151-5.42-.827 2.032-.066.812-1.145 3.248.429-.862 1.658-4.067 1.476-4.169.734-2.084 1.687-4.398 2.583-6.695.883-2.301 1.845-4.535 2.594-6.453l-.572 1.063c.428-1.684 1.21-3.72 2.116-6.07.431-1.182.893-2.443 1.356-3.775a60.78 60.78 0 0 0 1.332-4.21l-.043.12c.536-1.896.647-3.62 1.725-7.054-.068 1.025-.628 2.88-.36 2.754m39.124 62.424c.307-3.424.866-7.966 1.114-10.507l.1.27c.139-.906.383-2.845.55-4.078.155-1.235.143-1.782-.38.08-.02.314-.05.625-.06.941-.556 4.34-.848 3.074-1.457 6.443-.3 2.042-.338 3.676-.398 5.243-.085 1.564-.096 3.073-.334 4.882-.13 1.59-.253 1.333-.323.854-.147 1.829-.116 3.11-.08 4.243.051 1.135.166 2.124.155 3.379-.583.49-.537 3.321-.285 6.682l.224 2.593c.06.881.198 1.762.274 2.628.093.864.14 1.712.212 2.51.075.796.12 1.55.122 2.234.132.85.263 1.772.459 2.735l.564 3.026c.248 1.034.502 2.095.76 3.164.123.536.279 1.066.449 1.59l.504 1.57c-.443-1.084-.174-.09.136 1.07.32 1.16.77 2.46.462 2.055.25.246.605 1.12 1.011 2.302.468 1.16.987 2.63 1.539 4.074.611 1.418 1.194 2.837 1.743 3.897.574 1.049 1.046 1.769 1.314 1.848.311.67.538 1.183.728 1.563l.434.809c.196.357.231.404.283.475.051.071.118.167.374.621l.548.992c.125.223.257.485.427.774l.593.976c-.079.031-.72-.917-.95-1.31.63 1.203 1.293 2.021 1.87 2.817.295.393.56.788.84 1.195.283.404.551.84.803 1.35.789 1.122 1.228 1.723 1.475 2.03.259.3.32.31.339.266.042-.092-.06-.42 1.038.78.872 1.12 1.44 1.905 1.875 2.45.44.543.7.888.903 1.18.405.58.577.943 1.499 2.241.317.058 1.037.72 1.933 1.605l1.454 1.442c.526.488 1.087.964 1.627 1.405-.243-.248-1.07-1.034-1.566-1.58-.486-.557-.678-.834.256.022 4.754 4.572 4.058 3.375 8.789 7.337 2.096 2.36-4.682-4-.783-.21-1.549-1.197-2.884-2.283-4.056-3.211-.595-.454-1.114-.91-1.608-1.31-.493-.4-.956-.755-1.393-1.057l1.476 1.388.766.712.81.69 3.357 2.832 3.45 2.86c1.165.928 2.37 1.787 3.52 2.644 2.472 2.015-1.404-.846.54.732 4.326 3.734 7.263 4.892 10.829 7.707l-.892-.366c1.185.72 3.297 2.078 5.654 3.637 1.184.77 2.408 1.627 3.664 2.387a123.28 123.28 0 0 0 3.683 2.09c-.53-.437-.87-.72-.234-.436-.172.212 1.44 1.094 3.66 2.235 1.129.535 2.406 1.14 3.677 1.784.636.322 1.27.654 1.885.99l1.78.993c-.11-.244 1.002.12 2.5.709.75.294 1.598.645 2.439 1.003.84.363 1.675.73 2.42 1.014 1 .52.723.562.67.64a51.678 51.678 0 0 0 -1.577-.7l-1.22-.54a21.027 21.027 0 0 0 -1.832-.675c-1.085-.347-2.068-.596-3.986-1.398 1.608.647 3.682 1.613 5.71 2.547 1.007.486 2.04.876 2.98 1.251.942.369 1.806.689 2.524.918l-1.196-.2c4.402 1.895 4.11.993 8.69 3l-.534.016 1.787.665 1.833.632 3.73 1.291c2.504.869 5.062 1.65 7.546 2.455 2.5.755 4.945 1.476 7.258 2.117 2.317.628 4.498 1.184 6.467 1.627.72.03-3.08-1.459-3.247-1.64-2.332-.586-4.183-1.003-5.895-1.398-1.711-.395-3.296-.725-5.073-1.2l.143-.288c-.857-.04-5.113-1.231-2.83-.341-2.91-.747-2.094-.912-5.405-1.848.375-.223 2.323.399 2.44.146l-2.885-.803c.938.181-1.658-.68-.75-.509-1.34-.355-2.474-.668-3.479-1.038a72.34 72.34 0 0 1 -2.808-1.103c-.902-.372-1.807-.752-2.825-1.154-1.016-.408-2.122-.894-3.461-1.394l2.911 1.273c-.09.162-1.764-.554-3.055-1.032a17.43 17.43 0 0 0 -1.94-1.047c-.717-.342-1.61-.71-2.908-1.396-1.173-.465-2.114-.77-3.15-1.141a42.678 42.678 0 0 1 -1.668-.632c-.302-.124-.624-.254-.962-.408l-1.066-.54c.802.024-4.955-2.788-5.378-3.341-.813-.04-5.781-3.205-6.3-3.266a35.36 35.36 0 0 1 -1.268-.701c-.415-.264-.82-.53-1.172-.771-.703-.483-1.196-.868-1.14-.941l1.187.694-1.52-.997c.166.06.127-.001.31.109-1.356-.885-1.509-.682-3.184-1.968.065-.068 1.025.551 1.825 1.026-3.644-2.333-6.565-3.841-9.332-6.174-.332-.153-1.553-.909-2.528-1.62-.993-.69-1.825-1.221-1.514-.74-.986-.94-.395-.851-3.306-3.07-.917-.535-1.726-1.161-2.537-1.916-.814-.754-1.68-1.573-2.802-2.402 3.014 2.154.072-.058 2.724 1.805-.902-.86-2.121-1.81-3.523-2.904l-2.22-1.756c-.77-.629-1.59-1.278-2.354-2.04-.274-.359-.198-.415-.475-.775-.622-.507-1.315-1.03-1.973-1.585-.645-.567-1.228-1.19-1.682-1.837l-.022.296c-.49-.546-1.04-1.136-1.62-1.752l-1.717-1.987c-1.189-1.332-2.266-2.794-3.153-4.098-.897-.855-1.699-1.79-2.54-2.704-.313-.537-.66-1.08-1.013-1.64a61.503 61.503 0 0 0 -1.05-1.741 77.798 77.798 0 0 0 -1.13-1.755c-.362-.597-.725-1.195-1.083-1.788l-1.095-1.73-.987-1.68c-.64-1.08-1.27-2.057-1.735-2.926-.362-.838-.803-1.888-1.142-2.73-.304-.858-.504-1.51-.46-1.521.191.376.478 1.034.872 1.77-.516-1.23-.957-2.648-1.431-3.896-.44-1.26-.81-2.39-1.223-3.052-.495-1.28-.546-1.79-.582-2.211-.033-.422-.022-.765-.266-1.753-.523-1.291-.883-2.97-1.301-4.74-.2-.887-.327-1.815-.488-2.735-.15-.92-.312-1.838-.4-2.735-.212-1.79-.424-3.457-.55-4.787-.15-1.327-.34-2.306-.547-2.714l.35 4.674c.223 1.892.445 4.05.883 6.18-.291-1.114-.28-.2-.58-1.788-.664-4.309-.654-6.566-1.003-10.907l.506.485a71.659 71.659 0 0 0 -.02-2.759 77.662 77.662 0 0 0 -.03-2.69l-.044-1.32c-.004-.436-.01-.87-.013-1.302l-.038-2.553a84.497 84.497 0 0 1 .139-4.875c.14-1.566.339-3.074.647-4.504"/></g></g></svg>